# xmcd CD database file
#
# Track frame offsets:
#	150
#	24475
#	43804
#	62027
#	77838
#	103299
#	120500
#	132703
#	152370
#	164691
#	178234
#
# Disc length: 2651 seconds
#
# Revision: 0
# Processed by: cddbd v1.5PL3 Copyright (c) Steve Scherf et al.
# Submitted via: CDex 1.50
#
DISCID=990a590b
DTITLE=Zigeli Winter Quintett - Mari Gidli
DYEAR=2001
DGENRE=Jazz
TTITLE0=Swing 39
TTITLE1=Sag mir wohin (Bolero del Sol)
TTITLE2=It Had To Be You
TTITLE3=Mari Gidli
TTITLE4=Bossa Dorado
TTITLE5=Wo du gehst (Close To You)
TTITLE6=Limehouse Blues
TTITLE7=On The Sunny Side Of The Street
TTITLE8=Euphorie Valse
TTITLE9=S-H-I-N-E
TTITLE10=Lieder für Euch
EXTD=YEAR: 2001
EXTT0=
EXTT1=
EXTT2=
EXTT3=
EXTT4=
EXTT5=
EXTT6=
EXTT7=
EXTT8=
EXTT9=
EXTT10=
PLAYORDER=
